<svg xmlns="http://www.w3.org/2000/svg" xmlns:xlink="http://www.w3.org/1999/xlink" viewBox="0 0 376.84 420.14"><defs><style>.cls-1{fill:url(#radial-gradient);}.cls-2{clip-path:url(#clip-path);}.cls-3{fill:url(#radial-gradient-3);}.cls-4{fill:url(#radial-gradient-25);}.cls-5{fill:url(#linear-gradient);}.cls-6{fill:url(#linear-gradient-2);}.cls-7{fill:url(#linear-gradient-3);}.cls-8{fill:url(#linear-gradient-4);}.cls-9{fill:url(#linear-gradient-5);}.cls-10{fill:url(#linear-gradient-6);}.cls-11{fill:url(#linear-gradient-8);}.cls-12{fill:url(#linear-gradient-9);}.cls-13{fill:url(#linear-gradient-10);}.cls-14{fill:url(#linear-gradient-11);}.cls-15{fill:url(#linear-gradient-12);}.cls-16{fill:url(#linear-gradient-13);}</style><radialGradient id="radial-gradient" cx="184.08" cy="197.07" r="348.66" gradientUnits="userSpaceOnUse"><stop offset="0" stop-color="#c47ed4"/><stop offset="1" stop-color="#af6ac4"/></radialGradient><clipPath id="clip-path"><path class="cls-1" d="M188.4,38.15a17,17,0,0,1,8.69,2.38C226.42,58,237.87,80.2,236.91,105.71c0,1.12-.09,2.26-.17,3.4l0,.38c0,.42-.07.85-.1,1.27s-.08.94-.13,1.41-.09.86-.14,1.29-.11.94-.17,1.41-.12.87-.18,1.3l-.21,1.43c-.07.43-.15.87-.23,1.31s-.16,1-.26,1.43-.17.88-.26,1.32-.19,1-.3,1.46-.2.89-.3,1.33-.22,1-.34,1.45-.23.9-.34,1.35-.25,1-.39,1.47-.25.91-.38,1.36-.27,1-.42,1.47-.27.92-.42,1.37-.3,1-.46,1.49l-.09.29c16.29-18.65,34.8-29.65,56.49-29.65,12.73,0,26.56,3.79,41.68,12a16.94,16.94,0,0,1,5.48,4.81,8.71,8.71,0,0,1,3.11,6.44c0,.28,0,.54,0,.82a17.67,17.67,0,0,1,.28,3.09,111.73,111.73,0,0,1-1.42,16.44l-.12.7c-.19,1.15-.39,2.3-.63,3.41-6.35,32.74-28.34,49.76-60.27,56.82,37.48,7.94,61.38,30,62.46,75.81a17,17,0,0,1-.22,2.95c0,1.12,0,2.24,0,3.38a8.76,8.76,0,0,1-4.19,7.34C317.43,309.37,302.14,314,288.09,314c-21.51,0-40.07-10.95-56.58-29.5,4.28,12.85,6.19,25.12,5.2,36.67-1.64,23.11-14.79,43.37-44,59.68a8.77,8.77,0,0,1-8.45.05c-29.45-16.06-42.65-36.45-44.21-59.93-.93-11.49,1-23.72,5.13-36.56C129,303,110.54,313.93,88.93,313.93c-14,0-29.28-4.58-46.17-14.64A8.74,8.74,0,0,1,38.49,292c0-1.1,0-2.14,0-3.21a17,17,0,0,1-.29-3.11c.61-45.66,24.6-67.85,62.4-76.17-33.07-7-55.51-25.18-60.93-61a112.74,112.74,0,0,1-1.49-16,17.06,17.06,0,0,1,.22-3v-.95a8.78,8.78,0,0,1,3.07-6.52,17,17,0,0,1,5.41-4.83c15.06-8.43,28.9-12.3,41.69-12.3,21.59,0,40.21,11,56.77,29.67-.08-.25-.15-.5-.23-.74-.15-.46-.3-.92-.44-1.38s-.3-1-.45-1.46-.27-.91-.4-1.36-.27-1-.41-1.46l-.36-1.36c-.13-.48-.24-1-.36-1.44l-.33-1.35c-.11-.48-.21-1-.32-1.43s-.19-.89-.28-1.34-.19-1-.28-1.42-.16-.89-.24-1.32-.16-1-.23-1.42l-.21-1.31-.18-1.41c-.06-.43-.12-.86-.16-1.3s-.1-.93-.15-1.4-.08-.85-.11-1.28-.07-.93-.1-1.4-.06-.84-.08-1.26c0-.13,0-.26,0-.39-1.54-25.88,9.72-48.6,39.52-66.75a17.06,17.06,0,0,1,8.87-2.48M188.4,0h0a55.18,55.18,0,0,0-28.72,8.05c-29.75,18.12-45.05,39.79-52.28,60.5a100.45,100.45,0,0,0-18.82-1.76c-19.69,0-40,5.78-60.32,17.16A54.59,54.59,0,0,0,13,96.6,46.94,46.94,0,0,0,.29,127a53,53,0,0,0-.24,6.39,153.36,153.36,0,0,0,2,21.08c3.31,21.62,11.34,40.05,23.92,54.95C9.37,228.75.48,254.34.07,285.17a52.16,52.16,0,0,0,.26,6c0,.55,0,1.15,0,1.8a46.64,46.64,0,0,0,22.89,39.14c22.29,13.28,44.39,20,65.69,20a101.64,101.64,0,0,0,18.54-1.69c7.53,21.58,24.13,45.25,58.58,64a46.93,46.93,0,0,0,45.34-.24c33.94-19,50.37-42.47,57.89-63.76a100.43,100.43,0,0,0,18.81,1.76c21.52,0,43.73-6.9,66-20.51a46.64,46.64,0,0,0,22.45-39.39c0-.59,0-1.18,0-1.77a52,52,0,0,0,.2-6c-.72-30.58-9.61-55.92-25.89-75.07,11.51-13.55,19.22-30,23-49.15.33-1.63.6-3.14.83-4.54l.05-.25,0-.18q.08-.37.12-.72a150.52,150.52,0,0,0,1.88-21.87,53.07,53.07,0,0,0-.33-6.62,46.93,46.93,0,0,0-12.9-29.93,54.72,54.72,0,0,0-15.48-12.59c-20.32-11.1-40.5-16.73-60-16.73a101.09,101.09,0,0,0-18.57,1.69c-7.22-20.88-22.62-42.8-52.9-60.84A55.17,55.17,0,0,0,188.4,0Z"/></clipPath><radialGradient id="radial-gradient-3" cx="184.08" cy="420.14" r="16.28" xlink:href="#radial-gradient"/><radialGradient id="radial-gradient-25" cx="188.42" cy="0" r="133.23" xlink:href="#radial-gradient"/><linearGradient id="linear-gradient" x1="188.42" y1="175.72" x2="188.42" y2="57.54" gradientUnits="userSpaceOnUse"><stop offset="0" stop-color="#31153e"/><stop offset="1" stop-color="#522367"/></linearGradient><linearGradient id="linear-gradient-2" x1="-390.87" y1="-861.03" x2="-390.87" y2="-979.21" gradientTransform="translate(-332.07 961.92) rotate(60)" xlink:href="#linear-gradient"/><linearGradient id="linear-gradient-3" x1="-1578.37" y1="-877.73" x2="-1578.37" y2="-995.9" gradientTransform="translate(-1331.15 1155.29) rotate(120)" xlink:href="#linear-gradient"/><linearGradient id="linear-gradient-4" x1="-2186.58" y1="142.33" x2="-2186.58" y2="24.15" gradientTransform="translate(-1998.16 386.75) rotate(180)" xlink:href="#linear-gradient"/><linearGradient id="linear-gradient-5" x1="-1607.29" y1="1179.09" x2="-1607.29" y2="1060.91" gradientTransform="translate(-1666.09 -575.17) rotate(-120)" xlink:href="#linear-gradient"/><linearGradient id="linear-gradient-6" x1="-419.79" y1="1195.78" x2="-419.79" y2="1077.6" gradientTransform="translate(-667.01 -768.54) rotate(-60)" xlink:href="#linear-gradient"/><linearGradient id="linear-gradient-8" x1="26.79" y1="758.27" x2="26.79" y2="702.86" gradientTransform="translate(-224.82 -452.11) rotate(-30)" xlink:href="#radial-gradient"/><linearGradient id="linear-gradient-9" x1="189.36" y1="-447.38" x2="189.36" y2="-502.79" gradientTransform="translate(-188.35 483.95) rotate(30)" xlink:href="#radial-gradient"/><linearGradient id="linear-gradient-10" x1="-773.49" y1="-1190.99" x2="-773.49" y2="-1246.4" gradientTransform="translate(-980.76 983.56) rotate(90)" xlink:href="#radial-gradient"/><linearGradient id="linear-gradient-11" x1="-1898.89" y1="-728.95" x2="-1898.89" y2="-784.36" gradientTransform="translate(-1809.64 547.12) rotate(150)" xlink:href="#radial-gradient"/><linearGradient id="linear-gradient-12" x1="-2061.46" y1="476.7" x2="-2061.46" y2="421.29" gradientTransform="translate(-1846.11 -388.94) rotate(-150)" xlink:href="#radial-gradient"/><linearGradient id="linear-gradient-13" x1="-1098.62" y1="1220.31" x2="-1098.62" y2="1164.9" gradientTransform="translate(-1053.7 -888.55) rotate(-90)" xlink:href="#radial-gradient"/></defs><title>Asset 1</title><g id="Layer_2" data-name="Layer 2"><g id="Layer_1-2" data-name="Layer 1"><path class="cls-1" d="M188.4,38.15a17,17,0,0,1,8.69,2.38C226.42,58,237.87,80.2,236.91,105.71c0,1.12-.09,2.26-.17,3.4l0,.38c0,.42-.07.85-.1,1.27s-.08.94-.13,1.41-.09.86-.14,1.29-.11.94-.17,1.41-.12.87-.18,1.3l-.21,1.43c-.07.43-.15.87-.23,1.31s-.16,1-.26,1.43-.17.88-.26,1.32-.19,1-.3,1.46-.2.89-.3,1.33-.22,1-.34,1.45-.23.9-.34,1.35-.25,1-.39,1.47-.25.91-.38,1.36-.27,1-.42,1.47-.27.92-.42,1.37-.3,1-.46,1.49l-.09.29c16.29-18.65,34.8-29.65,56.49-29.65,12.73,0,26.56,3.79,41.68,12a16.94,16.94,0,0,1,5.48,4.81,8.71,8.71,0,0,1,3.11,6.44c0,.28,0,.54,0,.82a17.67,17.67,0,0,1,.28,3.09,111.73,111.73,0,0,1-1.42,16.44l-.12.7c-.19,1.15-.39,2.3-.63,3.41-6.35,32.74-28.34,49.76-60.27,56.82,37.48,7.94,61.38,30,62.46,75.81a17,17,0,0,1-.22,2.95c0,1.12,0,2.24,0,3.38a8.76,8.76,0,0,1-4.19,7.34C317.43,309.37,302.14,314,288.09,314c-21.51,0-40.07-10.95-56.58-29.5,4.28,12.85,6.19,25.12,5.2,36.67-1.64,23.11-14.79,43.37-44,59.68a8.77,8.77,0,0,1-8.45.05c-29.45-16.06-42.65-36.45-44.21-59.93-.93-11.49,1-23.72,5.13-36.56C129,303,110.54,313.93,88.93,313.93c-14,0-29.28-4.58-46.17-14.64A8.74,8.74,0,0,1,38.49,292c0-1.1,0-2.14,0-3.21a17,17,0,0,1-.29-3.11c.61-45.66,24.6-67.85,62.4-76.17-33.07-7-55.51-25.18-60.93-61a112.74,112.74,0,0,1-1.49-16,17.06,17.06,0,0,1,.22-3v-.95a8.78,8.78,0,0,1,3.07-6.52,17,17,0,0,1,5.41-4.83c15.06-8.43,28.9-12.3,41.69-12.3,21.59,0,40.21,11,56.77,29.67-.08-.25-.15-.5-.23-.74-.15-.46-.3-.92-.44-1.38s-.3-1-.45-1.46-.27-.91-.4-1.36-.27-1-.41-1.46l-.36-1.36c-.13-.48-.24-1-.36-1.44l-.33-1.35c-.11-.48-.21-1-.32-1.43s-.19-.89-.28-1.34-.19-1-.28-1.42-.16-.89-.24-1.32-.16-1-.23-1.42l-.21-1.31-.18-1.41c-.06-.43-.12-.86-.16-1.3s-.1-.93-.15-1.4-.08-.85-.11-1.28-.07-.93-.1-1.4-.06-.84-.08-1.26c0-.13,0-.26,0-.39-1.54-25.88,9.72-48.6,39.52-66.75a17.06,17.06,0,0,1,8.87-2.48M188.4,0h0a55.18,55.18,0,0,0-28.72,8.05c-29.75,18.12-45.05,39.79-52.28,60.5a100.45,100.45,0,0,0-18.82-1.76c-19.69,0-40,5.78-60.32,17.16A54.59,54.59,0,0,0,13,96.6,46.94,46.94,0,0,0,.29,127a53,53,0,0,0-.24,6.39,153.36,153.36,0,0,0,2,21.08c3.31,21.62,11.34,40.05,23.92,54.95C9.37,228.75.48,254.34.07,285.17a52.16,52.16,0,0,0,.26,6c0,.55,0,1.15,0,1.8a46.64,46.64,0,0,0,22.89,39.14c22.29,13.28,44.39,20,65.69,20a101.64,101.64,0,0,0,18.54-1.69c7.53,21.58,24.13,45.25,58.58,64a46.93,46.93,0,0,0,45.34-.24c33.94-19,50.37-42.47,57.89-63.76a100.43,100.43,0,0,0,18.81,1.76c21.52,0,43.73-6.9,66-20.51a46.64,46.64,0,0,0,22.45-39.39c0-.59,0-1.18,0-1.77a52,52,0,0,0,.2-6c-.72-30.58-9.61-55.92-25.89-75.07,11.51-13.55,19.22-30,23-49.15.33-1.63.6-3.14.83-4.54l.05-.25,0-.18q.08-.37.12-.72a150.52,150.52,0,0,0,1.88-21.87,53.07,53.07,0,0,0-.33-6.62,46.93,46.93,0,0,0-12.9-29.93,54.72,54.72,0,0,0-15.48-12.59c-20.32-11.1-40.5-16.73-60-16.73a101.09,101.09,0,0,0-18.57,1.69c-7.22-20.88-22.62-42.8-52.9-60.84A55.17,55.17,0,0,0,188.4,0Z"/><g class="cls-2"><path class="cls-3" d="M0,420.14H0Z"/><rect class="cls-1" y="400.14" width="376.84" height="20.01"/><rect class="cls-1" y="380.13" width="376.84" height="20.01"/><rect class="cls-1" y="360.12" width="376.84" height="20.01"/><rect class="cls-1" y="340.11" width="376.84" height="20.01"/><rect class="cls-1" y="320.11" width="376.84" height="20.01"/><rect class="cls-1" y="300.1" width="376.84" height="20.01"/><rect class="cls-1" y="280.09" width="376.84" height="20.01"/><rect class="cls-1" y="260.09" width="376.84" height="20.01"/><rect class="cls-1" y="240.08" width="376.84" height="20.01"/><rect class="cls-1" y="220.07" width="376.84" height="20.01"/><rect class="cls-1" y="200.07" width="376.84" height="20.01"/><rect class="cls-1" y="180.06" width="376.84" height="20.01"/><rect class="cls-1" y="160.05" width="376.84" height="20.01"/><rect class="cls-1" y="140.05" width="376.84" height="20.01"/><rect class="cls-1" y="120.04" width="376.84" height="20.01"/><rect class="cls-1" y="100.03" width="376.84" height="20.01"/><rect class="cls-1" y="80.03" width="376.84" height="20.01"/><rect class="cls-1" y="60.02" width="376.84" height="20.01"/><rect class="cls-1" y="40.01" width="376.84" height="20.01"/><rect class="cls-1" y="20.01" width="376.84" height="20.01"/><rect class="cls-1" width="376.84" height="20.01"/><rect class="cls-4" width="376.84"/><rect class="cls-1" x="38.17" y="380.13" width="300.51" height="1.86"/><rect class="cls-1" x="38.17" y="360.12" width="300.51" height="20.01"/><rect class="cls-1" x="38.17" y="340.11" width="300.51" height="20.01"/><rect class="cls-1" x="38.17" y="320.11" width="300.51" height="20.01"/><rect class="cls-1" x="38.17" y="300.1" width="300.51" height="20.01"/><rect class="cls-1" x="38.17" y="280.09" width="300.51" height="20.01"/><rect class="cls-1" x="38.17" y="260.09" width="300.51" height="20.01"/><rect class="cls-1" x="38.17" y="240.08" width="300.51" height="20.01"/><rect class="cls-1" x="38.17" y="220.07" width="300.51" height="20.01"/><rect class="cls-1" x="38.17" y="200.07" width="300.51" height="20.01"/><rect class="cls-1" x="38.17" y="180.06" width="300.51" height="20.01"/><rect class="cls-1" x="38.17" y="160.05" width="300.51" height="20.01"/><rect class="cls-1" x="38.17" y="140.05" width="300.51" height="20.01"/><rect class="cls-1" x="38.17" y="120.04" width="300.51" height="20.01"/><rect class="cls-1" x="38.17" y="100.03" width="300.51" height="20.01"/><rect class="cls-1" x="38.17" y="80.03" width="300.51" height="20.01"/><rect class="cls-1" x="38.17" y="60.02" width="300.51" height="20.01"/><rect class="cls-1" x="38.17" y="40.01" width="300.51" height="20.01"/><rect class="cls-1" x="38.17" y="38.15" width="300.51" height="1.86"/></g><path class="cls-5" d="M197.41,35.37a17.69,17.69,0,0,0-18.21.1c-67.06,40.85-43.68,104,9.8,174.6l.81-.51C241.77,138.36,264.06,75,197.41,35.37Z"/><path class="cls-6" d="M344.22,130.51a17.71,17.71,0,0,0-9.2-15.72C266.11,77.13,223.1,129,188.71,210.57l.84.45C277.2,220.42,343.18,208.06,344.22,130.51Z"/><path class="cls-7" d="M335.22,305.21a17.69,17.69,0,0,0,9-15.82c-1.84-78.5-68.24-89.84-156.11-78.82l0,1C223.85,292.14,267.54,343.09,335.22,305.21Z"/><path class="cls-8" d="M179.42,384.78a17.73,17.73,0,0,0,18.22-.1c67.06-40.85,43.68-104-9.8-174.61l-.81.51C135.06,281.79,112.78,345.1,179.42,384.78Z"/><path class="cls-9" d="M32.62,289.63a17.74,17.74,0,0,0,9.2,15.73c68.9,37.65,111.92-14.18,146.31-95.79l-.85-.45C99.63,199.72,33.66,212.08,32.62,289.63Z"/><path class="cls-10" d="M41.62,114.93a17.7,17.7,0,0,0-9,15.82c1.84,78.51,68.23,89.84,156.11,78.82l0-1C153,128,109.3,77.05,41.62,114.93Z"/><path class="cls-5" d="M197.41,35.37a17.69,17.69,0,0,0-18.21.1c-67.06,40.85-43.68,104,9.8,174.6l.81-.51C241.77,138.36,264.06,75,197.41,35.37Z"/><path class="cls-11" d="M138.9,124.46c-26,40.83,3,65.72,49.79,85.45l.25-.46C194.34,159.13,186.7,121.79,138.9,124.46Z"/><path class="cls-12" d="M237.8,124.38c-48.38-2.14-55.43,35.43-49.11,85.85l.53,0C235.5,189.73,264,164.44,237.8,124.38Z"/><path class="cls-13" d="M287.32,210c-22.33-43-58.39-30.3-98.9.39l.28.45C229.58,240.67,265.73,252.72,287.32,210Z"/><path class="cls-14" d="M237.93,295.68c26.05-40.82-3-65.71-49.78-85.45l-.25.47C182.5,261,190.14,298.35,237.93,295.68Z"/><path class="cls-15" d="M139,295.76c48.38,2.14,55.43-35.43,49.11-85.85l-.53,0C141.34,230.42,112.83,255.7,139,295.76Z"/><path class="cls-16" d="M89.52,210.15c22.33,43,58.39,30.29,98.9-.4l-.28-.44C147.26,179.47,111.11,167.42,89.52,210.15Z"/><path class="cls-11" d="M138.9,124.46c-26,40.83,3,65.72,49.79,85.45l.25-.46C194.34,159.13,186.7,121.79,138.9,124.46Z"/></g></g></svg>