<?xml version="1.0" encoding="utf-8"?>
<!-- Generator: Adobe Illustrator 21.1.0, SVG Export Plug-In . SVG Version: 6.00 Build 0)  -->
<svg version="1.1" id="Layer_1" xmlns="http://www.w3.org/2000/svg" xmlns:xlink="http://www.w3.org/1999/xlink" x="0px" y="0px"
	 viewBox="0 0 615.8 303.3" style="enable-background:new 0 0 615.8 303.3;" xml:space="preserve">
<style type="text/css">
	.st0{fill:#EE323B;}
	.st1{fill:#FFFFFF;}
	.st2{fill:none;}
</style>
<g>
	<path class="st0" d="M556.4,58.7h-497c-1.1,0-2,0.9-2,2v181.9c0,1.1,0.9,2,2,2h497c1.1,0,2-0.9,2-2V60.7
		C558.4,59.6,557.5,58.7,556.4,58.7z"/>
	<g>
		<path class="st1" d="M132.9,80.2h-18.8c-0.7,0-1.3,0.6-1.3,1.3v67.3l-1.1-4.1c-1.2-4-2.4-8.1-3.8-12.4c-1.4-4.4-2.8-8.9-4.3-13.4
			c-3-9.3-7.2-22.1-12.7-37.9c-0.2-0.5-0.7-0.9-1.2-0.9H76.8c-0.7,0-1.3,0.6-1.3,1.3v140.3c0,0.7,0.6,1.3,1.3,1.3h18.8
			c0.7,0,1.3-0.6,1.3-1.3v-66l0.9,3.5c0.9,2.8,1.9,6,3,9.6c1.1,3.7,2.8,8.9,4.9,15.7c4.4,13.7,8.7,26.4,12.7,37.6
			c0.2,0.5,0.7,0.8,1.2,0.8h13.4c0.7,0,1.3-0.6,1.3-1.3V81.5C134.2,80.8,133.6,80.2,132.9,80.2z"/>
		<path class="st1" d="M257.2,80.2h-27.9c-0.7,0-1.3,0.6-1.3,1.3v140.3c0,0.7,0.6,1.3,1.3,1.3h20.2c0.7,0,1.3-0.6,1.3-1.3v-64.3h2.3
			c2.7,0,4.8,0.8,6.5,2.5c1.6,1.7,2.4,3.9,2.4,6.8v55c0,0.7,0.6,1.3,1.3,1.3h20.5c0.7,0,1.3-0.6,1.3-1.3v-51c0-4.5-0.5-8.4-1.4-11.5
			c-1-3.2-2.7-5.8-5-7.8c-1.7-1.4-3.7-2.7-6.2-3.7c4.1-1.6,7.2-3.9,9.2-7.1c2.4-3.8,3.6-9.3,3.6-16.6v-12.7c0-10-2.4-17.8-7.2-23.2
			C273.2,82.9,266.2,80.2,257.2,80.2z M262.2,131.7c0,2.3-0.7,3.8-2.3,4.7c-1.1,0.6-3.6,1.4-9.1,1.5v-37.2h3.5c2.6,0,4.7,0.6,6,1.6
			c1.3,1,1.9,2.5,1.9,4.6V131.7z"/>
		<path class="st1" d="M346.1,82.7c-4.3-2.4-9.3-3.6-14.9-3.6c-6.1,0-11.4,1.4-15.9,4.1c-4.5,2.7-7.9,6.7-10.2,11.9
			c-2.3,5.1-3.5,11.2-3.5,18.3V192c0,6.4,1.2,12.1,3.5,16.9c2.4,4.9,5.8,8.7,10.1,11.4c4.3,2.6,9.4,4,15.1,4c4.3,0,8.3-0.7,12-2.1
			c3.7-1.4,6.8-3.5,9.5-6.2c2.6-2.7,4.7-6,6-9.7c1.3-3.7,2-7.8,2-12.3v-17.8c0-0.7-0.6-1.3-1.3-1.3h-20.4c-0.7,0-1.3,0.6-1.3,1.3
			v21.2c0,2.1-0.6,3.8-1.7,5.1c-1.1,1.3-2.5,1.9-4.3,1.9c-1.8,0-3.3-0.8-4.5-2.4c-1.3-1.7-1.9-3.8-1.9-6.3V110
			c0-3.9,0.6-6.8,1.8-8.5c1.1-1.6,2.9-2.4,5.5-2.4c1.3,0,5.4,0,5.4,9.8c0,1.2-0.1,1.8-0.1,2.2c0,0.1,0,0.2,0,0.2v11.8
			c0,0.7,0.6,1.3,1.3,1.3h20.4c0.7,0,1.3-0.6,1.3-1.3v-14.8c0-5.8-1.2-10.9-3.5-15.3C353.9,88.6,350.5,85.2,346.1,82.7z"/>
		<path class="st1" d="M401.2,80.2h-20.3c-0.7,0-1.3,0.6-1.3,1.3v140.3c0,0.7,0.6,1.3,1.3,1.3h20.3c0.7,0,1.3-0.6,1.3-1.3V81.5
			C402.5,80.8,401.9,80.2,401.2,80.2z"/>
		<path class="st1" d="M468.7,80.2h-48.2c-0.7,0-1.3,0.6-1.3,1.3v17.9c0,0.7,0.6,1.3,1.3,1.3h12.4v121.1c0,0.7,0.6,1.3,1.3,1.3h20.5
			c0.7,0,1.3-0.6,1.3-1.3V100.7h12.7c0.7,0,1.3-0.6,1.3-1.3V81.5C470,80.8,469.4,80.2,468.7,80.2z"/>
		<path class="st1" d="M539.8,80.7c-0.2-0.3-0.6-0.5-1-0.5h-19.9c-0.6,0-1.2,0.5-1.3,1.1l-5.8,46.7L506,81.3
			c-0.1-0.6-0.6-1.1-1.3-1.1h-20.2c-0.4,0-0.8,0.2-1,0.5c-0.2,0.3-0.3,0.7-0.2,1.1l17.1,73.2v66.8c0,0.7,0.6,1.3,1.3,1.3H522
			c0.7,0,1.3-0.6,1.3-1.3v-67.5l16.8-72.6C540.2,81.4,540.1,81,539.8,80.7z"/>
		<path class="st1" d="M190.7,82c-0.1-1-1-1.7-1.9-1.7h-17.4c-1,0-1.8,0.7-1.9,1.7L148,220.9c-0.1,0.6,0.1,1.1,0.4,1.6
			c0.4,0.4,0.9,0.7,1.5,0.7h19.8c1,0,1.8-0.8,1.9-1.7l1.8-16.3h13.1l1.7,16.3c0.1,1,0.9,1.7,1.9,1.7h19.5c0.6,0,1.1-0.2,1.5-0.7
			c0.4-0.4,0.5-1,0.5-1.6L190.7,82z M175.6,184.4l4.2-43.8l4.3,43.8H175.6z"/>
	</g>
</g>
<rect x="0" class="st2" width="615.8" height="303.3"/>
</svg>
