<svg height="512pt" viewBox="-61 0 512 512" width="512pt" xmlns="http://www.w3.org/2000/svg"><path d="m240.0625 45v33.898438c0 8.101562-6.597656 15-15 15h-60c-8.402344 0-15-6.898438-15-15v-33.898438c0-24.902344 20.097656-45 45-45s45 20.097656 45 45zm0 0" fill="#ffe470"/><path d="m225.0625 93.898438h-30v-93.898438c24.902344 0 45 20.097656 45 45v33.898438c0 8.101562-6.597656 15-15 15zm0 0" fill="#fdbf00"/><path d="m390.0625 392-195 28.800781-8.402344 1.199219-186.597656-30c.300781-3-2.101562-16.5 7.5-30.902344l21.597656-32.398437c20.402344-30.300781 30.902344-67.398438 30.902344-103.699219v-30c0-73.5 59.398438-134.699219 133.800781-135h1.199219c77.402344.300781 135 66.300781 135 140.097656v30c0 33.003906 9.597656 66.800782 27.898438 94.101563l24.601562 36.898437c9.597656 14.402344 7.199219 27.601563 7.5 30.902344zm0 0" fill="#ffd400"/><path d="m390.0625 392-195 28.800781v-360.800781c77.402344.300781 135 66.300781 135 140.097656v30c0 33.003906 9.597656 66.800782 27.898438 94.101563l24.601562 36.898437c9.597656 14.402344 7.199219 27.601563 7.5 30.902344zm0 0" fill="#ff9f00"/><path d="m268.5625 443.597656-16.800781 33.300782c-10.796875 21.601562-32.398438 35.101562-56.699219 35.101562s-45.902344-13.5-56.699219-35.097656l-16.800781-33.300782c-3.601562-7.203124-.597656-16.199218 6.902344-20.101562h133.195312c7.5 3.898438 10.5 12.898438 6.902344 20.097656zm0 0" fill="#ffd400"/><path d="m268.5625 443.597656-16.800781 33.300782c-10.796875 21.601562-32.398438 35.101562-56.699219 35.101562v-88.5h66.597656c7.5 3.898438 10.5 12.898438 6.902344 20.097656zm0 0" fill="#ff9f00"/><path d="m390.0625 392v15c0 24.902344-20.097656 45-45 45h-300c-24.902344 0-45-20.097656-45-45v-15zm0 0" fill="#ffe470"/><path d="m390.0625 392v15c0 24.902344-20.097656 45-45 45h-150v-60zm0 0" fill="#fdbf00"/></svg>