<svg height="512pt" viewBox="0 0 512 512" width="512pt" xmlns="http://www.w3.org/2000/svg"><path d="m0 256c0 35.398438 8.199219 68.699219 21.097656 99.300781 12.902344 30.300781 31.5 57.898438 54.601563 81 46.203125 46.199219 109.800781 75.699219 180.300781 75.699219s134.097656-29.5 180.300781-75.699219c46.199219-46.203125 75.699219-109.800781 75.699219-180.300781 0-35.398438-7.199219-68.699219-20.097656-99.300781-12.902344-30.300781-32.5-57.898438-55.601563-81-46.203125-46.199219-109.800781-75.699219-180.300781-75.699219-35.398438 0-68.699219 7.199219-99.300781 20.097656-30.300781 12.902344-57.898438 32.5-81 55.601563-46.199219 46.199219-75.699219 109.800781-75.699219 180.300781zm0 0" fill="#ede9e8"/><path d="m75.699219 436.300781c46.203125 46.199219 109.800781 75.699219 180.300781 75.699219s134.097656-29.5 180.300781-75.699219c46.199219-46.203125 75.699219-109.800781 75.699219-180.300781 0-35.398438-7.199219-68.699219-20.097656-99.300781-12.902344-30.300781-32.5-57.898438-55.601563-81zm0 0" fill="#dfd7d5"/><path d="m61 256c0 53.699219 21.898438 102.597656 57.300781 137.699219 35.101563 35.398437 84 57.300781 137.699219 57.300781s102.597656-21.902344 137.699219-57.300781c35.402343-35.101563 57.300781-84 57.300781-137.699219s-21.898438-102.601562-57.300781-137.699219c-35.101563-35.402343-84-57.300781-137.699219-57.300781s-102.597656 21.898438-137.699219 57.300781c-35.402343 35.097657-57.300781 84-57.300781 137.699219zm0 0" fill="#76e2f8"/><path d="m118.300781 393.699219c35.101563 35.398437 84 57.300781 137.699219 57.300781s102.597656-21.902344 137.699219-57.300781c35.402343-35.101563 57.300781-84 57.300781-137.699219s-21.898438-102.601562-57.300781-137.699219zm0 0" fill="#25d9f8"/><path d="m271 391c0 8.285156-6.714844 15-15 15s-15-6.714844-15-15 6.714844-15 15-15 15 6.714844 15 15zm0 0" fill="#53433f"/><path d="m406 256c0 8.285156-6.714844 15-15 15s-15-6.714844-15-15 6.714844-15 15-15 15 6.714844 15 15zm0 0" fill="#53433f"/><path d="m271 121c0 8.285156-6.714844 15-15 15s-15-6.714844-15-15 6.714844-15 15-15 15 6.714844 15 15zm0 0" fill="#68544f"/><path d="m136 256c0 8.285156-6.714844 15-15 15s-15-6.714844-15-15 6.714844-15 15-15 15 6.714844 15 15zm0 0" fill="#68544f"/><path d="m154.300781 357.699219c4.199219 4.199219 10.5 5.402343 15.898438 3.601562l133.5-48.902343c1.800781-.597657 3.898437-1.796876 5.402343-3.300782l-41.402343-64.796875-11.699219-18.300781-53.101562-23.101562c-1.5 1.5-2.699219 3.601562-3.300782 5.402343l-48.898437 133.5c-1.800781 5.699219-.601563 11.699219 3.601562 15.898438zm0 0" fill="#ff4b00"/><path d="m154.300781 357.699219c4.199219 4.199219 10.5 5.402343 15.898438 3.601562l133.5-48.902343c1.800781-.597657 3.898437-1.796876 5.402343-3.300782l-41.402343-64.796875zm0 0" fill="#dd3400"/><path d="m202.898438 202.898438 53.101562 53.101562 53.101562 53.097656c1.5-1.5 2.699219-3.597656 3.300782-5.398437l48.898437-133.5c1.800781-5.699219.601563-11.699219-3.601562-15.898438-4.199219-4.203125-10.199219-5.402343-15.898438-3.601562l-133.5 48.898437c-1.800781.601563-3.898437 1.800782-5.402343 3.300782zm0 0" fill="#725d57"/><path d="m256 256 53.101562 53.097656c1.5-1.5 2.699219-3.597656 3.300782-5.398437l48.898437-133.5c1.800781-5.699219.601563-11.699219-3.601562-15.898438zm0 0" fill="#3e322e"/></svg>