<svg height="512pt" viewBox="-76 0 512 512" width="512pt" xmlns="http://www.w3.org/2000/svg"><path d="m180 0c-99.300781 0-180 80.699219-180 180 0 35.398438 10.199219 69.601562 29.398438 98.398438l137.703124 226.402343c2.996094 4.5 7.796876 7.199219 12.898438 7.199219s9.902344-2.699219 12.898438-7.199219l137.402343-225.800781c19.5-29.398438 29.699219-63.601562 29.699219-99 0-99.300781-80.699219-180-180-180zm0 0" fill="#ff4b00"/><path d="m360 180c0 35.398438-10.199219 69.601562-29.699219 99l-137.402343 225.800781c-2.996094 4.5-7.796876 7.199219-12.898438 7.199219v-512c99.300781 0 180 80.699219 180 180zm0 0" fill="#dd3400"/><path d="m180 60c-66.300781 0-120 53.699219-120 120s53.699219 120 120 120 120-53.699219 120-120-53.699219-120-120-120zm0 0" fill="#a8ebfa"/><path d="m300 180c0 66.300781-53.699219 120-120 120v-240c66.300781 0 120 53.699219 120 120zm0 0" fill="#76e2f8"/><path d="m270 180c0 49.5-40.5 90-90 90s-90-40.5-90-90 40.5-90 90-90 90 40.5 90 90zm0 0" fill="#3aaaff"/><path d="m270 180c0 49.5-40.5 90-90 90v-180c49.5 0 90 40.5 90 90zm0 0" fill="#0095ff"/><path d="m180 60c-39.300781 0-60 60.300781-60 120s20.699219 120 60 120 60-60.300781 60-120-20.699219-120-60-120zm0 210c-10.5 0-30-34.199219-30-90s19.5-90 30-90 30 34.199219 30 90-19.5 90-30 90zm0 0" fill="#a8ebfa"/><path d="m240 180c0 59.699219-20.699219 120-60 120v-30c10.5 0 30-34.199219 30-90s-19.5-90-30-90v-30c39.300781 0 60 60.300781 60 120zm0 0" fill="#76e2f8"/><path d="m295.5 180c0 8.398438-6.601562 15-15 15h-201c-8.398438 0-15-6.601562-15-15 0-8.402344 6.601562-15 15-15h201c8.398438 0 15 6.597656 15 15zm0 0" fill="#a8ebfa"/><path d="m295.5 180c0 8.398438-6.601562 15-15 15h-100.5v-30h100.5c8.398438 0 15 6.597656 15 15zm0 0" fill="#76e2f8"/></svg>